<svg preserveAspectRatio="none" overflow="visible" style="display: block;" width="25" height="25" viewBox="0 0 25 25" fill="none" xmlns="http://www.w3.org/2000/svg">
<g id="Component 21">
<circle id="Ellipse 3" cx="12.5" cy="12.5" r="12.5" fill="#101528" fill-opacity="0.9"/>
<g id="Vector">
<path d="M12.5 18.3438L11.5938 17.5188C8.375 14.6 6.25 12.6687 6.25 10.3125C6.25 8.38125 7.7625 6.875 9.6875 6.875C10.775 6.875 11.8187 7.38125 12.5 8.175C13.1813 7.38125 14.225 6.875 15.3125 6.875C17.2375 6.875 18.75 8.38125 18.75 10.3125C18.75 12.6687 16.625 14.6 13.4062 17.5188L12.5 18.3438Z" fill="#FFECF9"/>
<path d="M15.3125 7.375C16.962 7.375 18.25 8.65799 18.25 10.3125C18.25 11.3262 17.7977 12.2885 16.8984 13.3887C15.9937 14.4955 14.6895 15.6802 13.0703 17.1484L13.0693 17.1494L12.5 17.667L11.9307 17.1494L11.9297 17.1484L10.7754 16.0967C9.68339 15.0923 8.78004 14.2187 8.10156 13.3887C7.20232 12.2885 6.75 11.3262 6.75 10.3125C6.75 8.65799 8.03805 7.375 9.6875 7.375C10.6238 7.375 11.5303 7.81384 12.1201 8.50098L12.5 8.94238L12.8799 8.50098C13.4697 7.81384 14.3762 7.375 15.3125 7.375Z" stroke="#BFBFBF" stroke-opacity="0.71"/>
</g>
</g>
</svg>
